<svg width="58" height="145" viewBox="0 0 58 145" fill="none" xmlns="http://www.w3.org/2000/svg">
<path d="M54.25 1.25H3.25C2.14543 1.25 1.25 2.14543 1.25 3.25V141.25C1.25 142.355 2.14543 143.25 3.25 143.25H54.25C55.3546 143.25 56.25 142.355 56.25 141.25V3.25C56.25 2.14543 55.3546 1.25 54.25 1.25Z" fill="#617485" stroke="#3A444F" stroke-width="2.5"/>
<path d="M38.7053 113.106H18.0063V132.04H38.7053V113.106Z" fill="#05D737"/>
<path d="M50.3305 27.4082H7.55273V94.6714H50.3305V27.4082Z" fill="#384152"/>
<path d="M13.4785 88.7832V45.7529H44.2193V88.7832H13.4785Z" fill="#455063"/>
<path d="M44.2193 31.9375H13.4785V39.4112H44.2193V31.9375Z" fill="#128587"/>
<path d="M18.319 3.80664H14.5259V8.28054H18.319V3.80664Z" fill="#BCC2CD"/>
<path d="M24.0089 3.85449H20.2158V8.32839H24.0089V3.85449Z" fill="#BCC2CD"/>
<path d="M29.6984 3.85449H25.9053V8.32839H29.6984V3.85449Z" fill="#BCC2CD"/>
<path d="M10.1445 2.04826V12.0072H47.9223V2.03915" stroke="#475462" stroke-width="5"/>
</svg>
